<?xml version="1.0" encoding="UTF-8" standalone="no"?>
<!-- Created with Inkscape (http://www.inkscape.org/) -->

<svg
   xmlns:dc="http://purl.org/dc/elements/1.1/"
   xmlns:cc="http://creativecommons.org/ns#"
   xmlns:rdf="http://www.w3.org/1999/02/22-rdf-syntax-ns#"
   xmlns:svg="http://www.w3.org/2000/svg"
   xmlns="http://www.w3.org/2000/svg"
   xmlns:sodipodi="http://sodipodi.sourceforge.net/DTD/sodipodi-0.dtd"
   xmlns:inkscape="http://www.inkscape.org/namespaces/inkscape"
   width="1024"
   height="1024"
   viewBox="0 0 270.93333 270.93333"
   version="1.1"
   id="svg8"
   inkscape:version="0.92.2 (5c3e80d, 2017-08-06)"
   sodipodi:docname="AppIcon.svg"
   inkscape:export-filename="C:\Users\tnakamura\Desktop\AppIcon.png"
   inkscape:export-xdpi="96"
   inkscape:export-ydpi="96">
  <defs
     id="defs2" />
  <sodipodi:namedview
     id="base"
     pagecolor="#ffffff"
     bordercolor="#666666"
     borderopacity="1.0"
     inkscape:pageopacity="0.0"
     inkscape:pageshadow="2"
     inkscape:zoom="0.35"
     inkscape:cx="510.85714"
     inkscape:cy="331.42857"
     inkscape:document-units="mm"
     inkscape:current-layer="layer1"
     showgrid="false"
     units="px"
     inkscape:window-width="959"
     inkscape:window-height="725"
     inkscape:window-x="163"
     inkscape:window-y="0"
     inkscape:window-maximized="0" />
  <metadata
     id="metadata5">
    <rdf:RDF>
      <cc:Work
         rdf:about="">
        <dc:format>image/svg+xml</dc:format>
        <dc:type
           rdf:resource="http://purl.org/dc/dcmitype/StillImage" />
        <dc:title />
      </cc:Work>
    </rdf:RDF>
  </metadata>
  <rect
     style="fill:#24292e;fill-opacity:1;stroke-width:1.23527098"
     id="rect4518"
     width="270.93332"
     height="270.93332"
     x="0"
     y="1.4241537e-005" />
  <g
     inkscape:groupmode="layer"
     id="layer2"
     inkscape:label="background"
     style="display:inline" />
  <g
     inkscape:label="foreground"
     inkscape:groupmode="layer"
     id="layer1"
     transform="translate(0,-26.066725)"
     style="display:inline">
    <path
       id="path10"
       d="m 135.46669,80.74109 c 44.5067,0 80.79241,36.2856 80.79241,80.79234 0,44.50665 -36.28571,80.79276 -80.79241,80.79276 A 80.934151,80.93427 0 0 1 54.67424,161.53343 c 0,-44.50674 36.2857,-80.79234 80.79245,-80.79234 z m 0,-18.426448 c -54.712111,0 -99.218773,44.506668 -99.218773,99.218788 0,54.71203 44.506662,99.21871 99.218773,99.21871 54.71206,0 99.21873,-44.50668 99.21873,-99.21871 0,-54.71212 -44.50667,-99.218788 -99.21873,-99.218788 z m 14.17409,42.522388 h -28.3482 v 70.87034 h 28.3482 z m 0,85.04481 h -28.3482 v 28.3479 h 28.3482 z"
       inkscape:connector-curvature="0"
       style="fill:#ffffff;fill-opacity:1;fill-rule:evenodd;stroke-width:14.17411804" />
  </g>
</svg>
